<?xml version="1.0" encoding="UTF-8" standalone="no"?>
<!-- Created with Inkscape (http://www.inkscape.org/) -->

<svg
   width="99.392448mm"
   height="56.282955mm"
   viewBox="0 0 99.392448 56.282955"
   version="1.1"
   id="svg1"
   inkscape:version="1.4 (86a8ad7, 2024-10-11)"
   sodipodi:docname="logo.svg"
   inkscape:export-filename="plume-engine\dist\plume.png"
   inkscape:export-xdpi="500"
   inkscape:export-ydpi="500"
   xml:space="preserve"
   xmlns:inkscape="http://www.inkscape.org/namespaces/inkscape"
   xmlns:sodipodi="http://sodipodi.sourceforge.net/DTD/sodipodi-0.dtd"
   xmlns="http://www.w3.org/2000/svg"
   xmlns:svg="http://www.w3.org/2000/svg"><sodipodi:namedview
     id="namedview1"
     pagecolor="#505050"
     bordercolor="#eeeeee"
     borderopacity="1"
     inkscape:showpageshadow="0"
     inkscape:pageopacity="0"
     inkscape:pagecheckerboard="0"
     inkscape:deskcolor="#505050"
     inkscape:document-units="mm"
     inkscape:zoom="1"
     inkscape:cx="487.49999"
     inkscape:cy="167.5"
     inkscape:window-width="2560"
     inkscape:window-height="1351"
     inkscape:window-x="1911"
     inkscape:window-y="-9"
     inkscape:window-maximized="1"
     inkscape:current-layer="layer2"
     inkscape:export-bgcolor="#ffffff00" /><defs
     id="defs1"><inkscape:path-effect
       effect="bspline"
       id="path-effect3-6-92-5-3-0-6-1-7-8-7-9-7-0"
       is_visible="true"
       lpeversion="1.3"
       weight="33.333333"
       steps="2"
       helper_size="0"
       apply_no_weight="true"
       apply_with_weight="true"
       only_selected="false"
       uniform="false" /><inkscape:path-effect
       effect="bspline"
       id="path-effect19-9-2"
       is_visible="true"
       lpeversion="1.3"
       weight="33.333333"
       steps="2"
       helper_size="0"
       apply_no_weight="true"
       apply_with_weight="true"
       only_selected="false"
       uniform="false" /><inkscape:path-effect
       effect="bspline"
       id="path-effect3-6-92-5-3-0-6-1-7-8-7-9-7-0-3"
       is_visible="true"
       lpeversion="1.3"
       weight="33.333333"
       steps="2"
       helper_size="0"
       apply_no_weight="true"
       apply_with_weight="true"
       only_selected="false"
       uniform="false" /><inkscape:path-effect
       effect="bspline"
       id="path-effect19-9-2-2"
       is_visible="true"
       lpeversion="1.3"
       weight="33.333333"
       steps="2"
       helper_size="0"
       apply_no_weight="true"
       apply_with_weight="true"
       only_selected="false"
       uniform="false" /><inkscape:path-effect
       effect="bspline"
       id="path-effect3-6-92-5-3-0-6-1-7-8-7-9-7-0-38"
       is_visible="true"
       lpeversion="1.3"
       weight="33.333333"
       steps="2"
       helper_size="0"
       apply_no_weight="true"
       apply_with_weight="true"
       only_selected="false"
       uniform="false" /><inkscape:path-effect
       effect="bspline"
       id="path-effect19-9-2-7"
       is_visible="true"
       lpeversion="1.3"
       weight="33.333333"
       steps="2"
       helper_size="0"
       apply_no_weight="true"
       apply_with_weight="true"
       only_selected="false"
       uniform="false" /></defs><g
     inkscape:groupmode="layer"
     id="layer2"
     inkscape:label="Layer 2"
     transform="translate(-831.32271,122.96761)"><text
       xml:space="preserve"
       style="font-size:34.3825px;line-height:1.25;font-family:'Antykwa Torunska';-inkscape-font-specification:'Antykwa Torunska';letter-spacing:0px;word-spacing:0px;fill:#000000;stroke:none;stroke-width:0.264583;stroke-opacity:1"
       x="855.80261"
       y="-84.574867"
       id="text1-24-9-1-2-6-5-8-6-7-6-9-1-2"
       inkscape:export-filename="txe\dist\plume_small.png"
       inkscape:export-xdpi="200"
       inkscape:export-ydpi="200"
       transform="scale(1.0000764,0.9999236)"><tspan
         sodipodi:role="line"
         id="tspan1-8-8-0-5-9-4-0-7-6-9-0-9-7"
         style="font-style:normal;font-variant:normal;font-weight:normal;font-stretch:normal;font-family:Montez;-inkscape-font-specification:Montez;fill:#000000;stroke:none;stroke-width:0.264583;stroke-opacity:1"
         x="855.80261"
         y="-84.574867">lume</tspan></text><text
       xml:space="preserve"
       style="font-size:41.5144px;line-height:1.25;font-family:'Antykwa Torunska';-inkscape-font-specification:'Antykwa Torunska';letter-spacing:0px;word-spacing:0px;fill:#000000;stroke:none;stroke-width:0.264582;stroke-opacity:1"
       x="830.56744"
       y="-86.759773"
       id="text1-24-9-1-2-6-0-8-8-6-53-5-6-6-9"
       transform="scale(1.0014973,0.99850493)"
       inkscape:export-filename="dist\text1-24-9-1-2-6-0-8-8-6-53-5-6-6.png"
       inkscape:export-xdpi="500"
       inkscape:export-ydpi="500"><tspan
         sodipodi:role="line"
         id="tspan1-8-8-0-5-9-3-1-2-1-1-5-7-7-3"
         style="font-style:normal;font-variant:normal;font-weight:normal;font-stretch:normal;font-family:Montez;-inkscape-font-specification:Montez;fill:#000000;stroke:none;stroke-width:0.264582;stroke-opacity:1"
         x="830.56744"
         y="-86.759773">P</tspan></text><path
       style="fill:#ffffff;stroke:#000000;stroke-width:1.02604;stroke-linejoin:round;stroke-miterlimit:3.4;stroke-opacity:1"
       d="m 34.610817,142.49208 c 2.699209,-3.35224 5.398381,-6.70444 6.887549,-10.74579 1.489167,-4.04134 1.768249,-8.77159 1.893415,-11.83694 0.125165,-3.06534 0.09641,-4.46565 0.06765,-5.86597 -0.834751,-0.48814 -1.669502,-0.97627 -2.504253,-1.46441 0.915767,-0.12621 1.831536,-0.25242 2.747302,-0.37863 1.29777,-3.97332 2.595541,-7.94664 3.893311,-11.91996 -5.895607,4.36212 -11.791216,8.72425 -15.239678,13.80043 -3.448462,5.07618 -4.449782,10.86642 -3.666142,15.72064 0.78364,4.85422 3.352243,8.77243 5.920844,12.69063 z"
       id="path2-9-2-9-6-66-1-4-9-3-3-5-0-1"
       sodipodi:nodetypes="cccccccssc"
       transform="matrix(-0.97469865,0,0,0.97454966,957.25489,-219.48823)"
       inkscape:original-d="m 34.610817,142.49208 c 0,0 5.398383,-6.70444 8.097626,-10.05673 0.27909,-4.7304 0.558172,-9.46065 0.83726,-14.19101 -0.02876,-1.40033 -0.08627,-4.20096 -0.08627,-4.20096 -0.834749,-0.48814 -2.504253,-1.46441 -2.504253,-1.46441 0,0 1.831536,-0.25242 2.747302,-0.37863 0,0 2.595541,-7.94664 3.893311,-11.91996 0,0 -11.791214,8.72425 -17.686821,13.08637 -1.001319,5.79024 -2.002639,11.58048 -3.003958,17.37072 2.568601,3.9182 7.705804,11.75461 7.705803,11.75461 z"
       inkscape:path-effect="#path-effect3-6-92-5-3-0-6-1-7-8-7-9-7-0-38" /><path
       style="font-size:35.2777px;line-height:1.25;font-family:Montez;-inkscape-font-specification:Montez;letter-spacing:0px;word-spacing:0px;fill:#000000;stroke:none;stroke-width:0.264583;stroke-opacity:1"
       d="m 920.62678,-74.287777 -0.0448,0.523567 c 0,0 0.39192,-0.0535 0.56542,-0.0535 0.22389,0 0.43647,-0.04473 0.63804,-0.134293 0.20147,-0.07835 0.38608,-0.167876 0.55402,-0.268596 0.34699,-0.190251 0.6548,-0.470035 0.92343,-0.83935 0.25741,-0.369315 0.4813,-0.794589 0.67156,-1.275822 0.17906,-0.481223 0.33579,-1.007217 0.4701,-1.577981 0.12311,-0.559567 0.22389,-1.130322 0.30226,-1.712274 0.078,-0.581952 0.13986,-1.158301 0.1847,-1.729066 0.0448,-0.570764 0.0731,-1.102352 0.0838,-1.594772 0.0351,-0.455826 0,-0.683111 0.0166,-1.661919 0,-1.141519 -0.039,-2.350185 -0.11754,-3.625997 -0.078,-1.28701 -0.21834,-2.568426 -0.41981,-3.844238 -0.20147,-1.287 -0.47009,-2.54044 -0.80588,-3.7603 -0.34699,-1.21985 -0.78346,-2.34459 -1.3096,-3.37419 l -0.30216,0.10072 c 0.38052,1.93611 0.66036,3.87781 0.83951,5.8251 0.16784,1.936113 0.25176,3.877815 0.25176,5.825112 0,0.716245 -0.0166,1.426896 -0.0507,2.131954 -0.0448,0.693869 -0.10634,1.387729 -0.18461,2.081589 l -0.11755,0.923288 c -0.36941,2.529249 -1.04098,5.024925 -2.0148,7.487027 -0.0331,0.08956 -0.0614,0.179064 -0.0838,0.268596 -0.0331,0.100719 -0.0507,0.195845 -0.0507,0.285377 h 10e-5 z"
       id="text1-4-7-1-22-3-6-7-3-6-6-0-0-8-9"
       aria-label="P"
       sodipodi:nodetypes="scscccccssccccccccscccccscs" /><path
       style="fill:none;fill-opacity:1;stroke:#000000;stroke-width:0.784918;stroke-linejoin:round;stroke-miterlimit:3.4;stroke-dasharray:none;stroke-opacity:1"
       d="m 694.2837,-5.1581779 c 1.67067,-1.1805357 3.34127,-2.3610246 3.6033,-1.0464468 0.26203,1.3145778 -0.88452,5.1240773 -1.09025,8.8223328 -0.20572,3.6982555 0.52942,7.2849171 2.23712,8.5646029 1.70771,1.279686 4.38796,0.252329 6.47521,-0.778818 2.08724,-1.031146 3.58141,-2.0660319 4.55414,-3.5763626 0.97274,-1.5103308 1.42394,-3.495935 1.87515,-5.4815957"
       id="path19-1-5"
       inkscape:path-effect="#path-effect19-9-2-7"
       inkscape:original-d="m 694.2837,-5.1581779 c 1.67067,-1.1805337 3.34127,-2.3610256 5.01195,-3.5415679 -1.14662,3.8096989 -2.29317,7.6191984 -3.43979,11.4289075 0.73517,3.5868019 1.47031,7.1734635 2.20546,10.7601993 2.68026,-1.027364 5.36051,-2.054721 8.04078,-3.082089 1.49422,-1.034925 2.98839,-2.0698109 4.48264,-3.1047609 0.45122,-1.9857119 0.90242,-3.9713156 1.35363,-5.9569764"
       sodipodi:nodetypes="cccsscc"
       transform="matrix(0.97469865,0,0,0.97454966,228.77542,-80.406004)" /></g></svg>
